<?xml version="1.0" encoding="UTF-8" standalone="no"?>
<svg
   xmlns:dc="http://purl.org/dc/elements/1.1/"
   xmlns:cc="http://creativecommons.org/ns#"
   xmlns:rdf="http://www.w3.org/1999/02/22-rdf-syntax-ns#"
   xmlns:svg="http://www.w3.org/2000/svg"
   xmlns="http://www.w3.org/2000/svg"
   viewBox="0 0 162.5 623.75"
   height="623.75"
   width="162.5"
   xml:space="preserve"
   version="1.1"
   id="svg2"><metadata
     id="metadata8"><rdf:RDF><cc:Work
         rdf:about=""><dc:format>image/svg+xml</dc:format><dc:type
           rdf:resource="http://purl.org/dc/dcmitype/StillImage" /></cc:Work></rdf:RDF></metadata><defs
     id="defs6" /><g
     transform="matrix(1.25,0,0,-1.25,0,623.75)"
     id="g10"><g
       transform="scale(0.1,0.1)"
       id="g12"><g
         transform="scale(10,10)"
         id="g14"><text
           id="text16"
           style="font-variant:normal;font-size:9.35937977px;font-family:f-0;-inkscape-font-specification:f-0-0;writing-mode:lr-tb;fill:#000000;fill-opacity:1;fill-rule:nonzero;stroke:none"
           transform="matrix(1,0,0,-1,0,464.304)"><tspan
             id="tspan18"
             y="0"
             x="0 5.4191437">2.</tspan></text>
</g><path
         id="path20"
         style="fill:#ffe6e6;fill-opacity:1;fill-rule:nonzero;stroke:none"
         d="m 162.578,4343.05 638.012,0 0,636.949 -638.012,0 0,-636.949 z" /><path
         id="path22"
         style="fill:none;stroke:#ff5454;stroke-width:10;stroke-linecap:square;stroke-linejoin:miter;stroke-miterlimit:10;stroke-dasharray:none;stroke-opacity:1"
         d="m 162.578,4343.05 638.012,0 0,636.949 -638.012,0 0,-636.949 z" /><path
         id="path24"
         style="fill:#e1ffe1;fill-opacity:1;fill-rule:nonzero;stroke:none"
         d="m 25.9414,3645.59 622.0706,622.11 622.068,-622.11 -1244.1386,0 z" /><path
         id="path26"
         style="fill:none;stroke:#e1ffe1;stroke-width:0.30000001;stroke-linecap:square;stroke-linejoin:miter;stroke-miterlimit:3.25;stroke-dasharray:none;stroke-opacity:1"
         d="m 25.9414,3645.59 622.0706,622.11 622.068,-622.11 -1244.1386,0 z" /><path
         id="path28"
         style="fill:none;stroke:#000000;stroke-width:14.39999962;stroke-linecap:square;stroke-linejoin:miter;stroke-miterlimit:3.25;stroke-dasharray:none;stroke-opacity:1"
         d="m 25.9414,3645.59 622.0706,622.11 622.068,-622.11 -1244.1386,0 z" /><g
         transform="scale(10,10)"
         id="g30"><text
           id="text32"
           style="font-variant:normal;font-size:10.79979992px;font-family:f-1;-inkscape-font-specification:f-1-0;writing-mode:lr-tb;fill:#000000;fill-opacity:1;fill-rule:nonzero;stroke:none"
           transform="matrix(1,0,0,-1,10.0395,392.054)"><tspan
             id="tspan34"
             y="0"
             x="0">q</tspan></text>
<text
           id="text36"
           style="font-variant:normal;font-size:10.79979992px;font-family:f-2;-inkscape-font-specification:f-2-0;writing-mode:lr-tb;fill:#000000;fill-opacity:1;fill-rule:nonzero;stroke:none"
           transform="matrix(1,0,0,-1,18.04223,392.054)"><tspan
             id="tspan38"
             y="0"
             x="0">+</tspan></text>
<text
           id="text40"
           style="font-variant:normal;font-size:10.79979992px;font-family:f-1;-inkscape-font-specification:f-1-0;writing-mode:lr-tb;fill:#000000;fill-opacity:1;fill-rule:nonzero;stroke:none"
           transform="matrix(1,0,0,-1,26.45512,392.054)"><tspan
             id="tspan42"
             y="0"
             x="0 81.106606 89.098404">26q</tspan><tspan
             id="tspan44"
             y="43.5457"
             x="27.1301">n</tspan></text>
<text
           id="text46"
           style="font-variant:normal;font-size:10.79979992px;font-family:f-2;-inkscape-font-specification:f-2-0;writing-mode:lr-tb;fill:#000000;fill-opacity:1;fill-rule:nonzero;stroke:none"
           transform="matrix(1,0,0,-1,61.58795,348.5083)"><tspan
             id="tspan48"
             y="0"
             x="0">+</tspan></text>
<text
           id="text50"
           style="font-variant:normal;font-size:10.79979992px;font-family:f-1;-inkscape-font-specification:f-1-0;writing-mode:lr-tb;fill:#000000;fill-opacity:1;fill-rule:nonzero;stroke:none"
           transform="matrix(1,0,0,-1,70.00084,348.5083)"><tspan
             id="tspan52"
             y="0"
             x="0">3</tspan></text>
<text
           id="text54"
           style="font-variant:normal;font-size:9.35937977px;font-family:f-0;-inkscape-font-specification:f-0-0;writing-mode:lr-tb;fill:#000000;fill-opacity:1;fill-rule:nonzero;stroke:none"
           transform="matrix(1,0,0,-1,10.08014,322.1759)"><tspan
             id="tspan56"
             y="0"
             x="0 7.7964854">3q</tspan></text>
<text
           id="text58"
           style="font-variant:normal;font-size:9.35937977px;font-family:f-3;-inkscape-font-specification:f-3-0;writing-mode:lr-tb;fill:#000000;fill-opacity:1;fill-rule:nonzero;stroke:none"
           transform="matrix(1,0,0,-1,23.29574,322.1759)"><tspan
             id="tspan60"
             y="0"
             x="0">+</tspan></text>
<text
           id="text62"
           style="font-variant:normal;font-size:9.35937977px;font-family:f-0;-inkscape-font-specification:f-0-0;writing-mode:lr-tb;fill:#000000;fill-opacity:1;fill-rule:nonzero;stroke:none"
           transform="matrix(1,0,0,-1,28.69613,322.1759)"><tspan
             id="tspan64"
             y="0"
             x="0">n</tspan></text>
<text
           id="text66"
           style="font-variant:normal;font-size:9.35937977px;font-family:f-3;-inkscape-font-specification:f-3-0;writing-mode:lr-tb;fill:#000000;fill-opacity:1;fill-rule:nonzero;stroke:none"
           transform="matrix(1,0,0,-1,34.11527,322.1759)"><tspan
             id="tspan68"
             y="0"
             x="0">-</tspan></text>
<text
           id="text70"
           style="font-variant:normal;font-size:9.35937977px;font-family:f-0;-inkscape-font-specification:f-0-0;writing-mode:lr-tb;fill:#000000;fill-opacity:1;fill-rule:nonzero;stroke:none"
           transform="matrix(1,0,0,-1,39.51566,322.1759)"><tspan
             id="tspan72"
             y="0"
             x="0">5</tspan></text>
</g><path
         id="path74"
         style="fill:none;stroke:#ff8000;stroke-width:36;stroke-linecap:square;stroke-linejoin:miter;stroke-miterlimit:10;stroke-dasharray:none;stroke-opacity:1"
         d="m 140,3344.57 c -19.102,0 -37.422,-7.58 -50.8984,-21.09 -13.5118,-13.52 -21.0899,-31.84 -21.0899,-50.9 l 0,-41.6 c 0,-19.1 7.5781,-37.43 21.0899,-50.94 13.4764,-13.48 31.7964,-21.09 50.8984,-21.09 l 271.602,0 c 19.097,0 37.418,7.61 50.898,21.09 13.52,13.51 21.09,31.84 21.09,50.94 l 0,41.6 c 0,19.06 -7.57,37.38 -21.09,50.9 -13.48,13.51 -31.801,21.09 -50.898,21.09 l -271.602,0 z" /><g
         transform="scale(10,10)"
         id="g76"><text
           id="text78"
           style="font-variant:normal;font-size:9.35937977px;font-family:f-0;-inkscape-font-specification:f-0-0;writing-mode:lr-tb;fill:#000000;fill-opacity:1;fill-rule:nonzero;stroke:none"
           transform="matrix(1,0,0,-1,10.0801,285.432)"><tspan
             id="tspan80"
             y="0"
             x="0 7.7964854">3q</tspan></text>
<text
           id="text82"
           style="font-variant:normal;font-size:9.35937977px;font-family:f-3;-inkscape-font-specification:f-3-0;writing-mode:lr-tb;fill:#000000;fill-opacity:1;fill-rule:nonzero;stroke:none"
           transform="matrix(1,0,0,-1,23.2957,285.432)"><tspan
             id="tspan84"
             y="0"
             x="0">+</tspan></text>
<text
           id="text86"
           style="font-variant:normal;font-size:9.35937977px;font-family:f-0;-inkscape-font-specification:f-0-0;writing-mode:lr-tb;fill:#000000;fill-opacity:1;fill-rule:nonzero;stroke:none"
           transform="matrix(1,0,0,-1,28.69609,285.432)"><tspan
             id="tspan88"
             y="0"
             x="0">n</tspan></text>
<text
           id="text90"
           style="font-variant:normal;font-size:9.35937977px;font-family:f-3;-inkscape-font-specification:f-3-0;writing-mode:lr-tb;fill:#000000;fill-opacity:1;fill-rule:nonzero;stroke:none"
           transform="matrix(1,0,0,-1,34.11523,285.432)"><tspan
             id="tspan92"
             y="0"
             x="0">+</tspan></text>
<text
           id="text94"
           style="font-variant:normal;font-size:9.35937977px;font-family:f-0;-inkscape-font-specification:f-0-0;writing-mode:lr-tb;fill:#000000;fill-opacity:1;fill-rule:nonzero;stroke:none"
           transform="matrix(1,0,0,-1,39.51562,285.432)"><tspan
             id="tspan96"
             y="0"
             x="0">2</tspan></text>
</g><path
         id="path98"
         style="fill:none;stroke:#ff8000;stroke-width:36;stroke-linecap:square;stroke-linejoin:miter;stroke-miterlimit:10;stroke-dasharray:none;stroke-opacity:1"
         d="m 140,2977.11 c -19.102,0 -37.422,-7.58 -50.8984,-21.09 -13.5118,-13.48 -21.0899,-31.8 -21.0899,-50.9 l 0,-41.6 c 0,-19.11 7.5781,-37.43 21.0899,-50.9 13.4764,-13.52 31.7964,-21.1 50.8984,-21.1 l 271.602,0 c 19.097,0 37.418,7.58 50.898,21.1 13.52,13.47 21.09,31.79 21.09,50.9 l 0,41.6 c 0,19.1 -7.57,37.42 -21.09,50.9 -13.48,13.51 -31.801,21.09 -50.898,21.09 l -271.602,0 z" /><path
         id="path100"
         style="fill:#e1ffe1;fill-opacity:1;fill-rule:nonzero;stroke:none"
         d="m 0,2275.67 631.988,0 0,402.027 -631.988,0 0,-402.027 z" /><path
         id="path102"
         style="fill:none;stroke:#e1ffe1;stroke-width:0.30000001;stroke-linecap:square;stroke-linejoin:miter;stroke-miterlimit:10;stroke-dasharray:none;stroke-opacity:1"
         d="m 0,2275.67 631.988,0 0,402.027 -631.988,0 0,-402.027 z" /><g
         transform="scale(10,10)"
         id="g104"><text
           id="text106"
           style="font-variant:normal;font-size:9.35937977px;font-family:f-0;-inkscape-font-specification:f-0-0;writing-mode:lr-tb;fill:#000000;fill-opacity:1;fill-rule:nonzero;stroke:none"
           transform="matrix(1,0,0,-1,13.6801,244.668)"><tspan
             id="tspan108"
             y="0"
             x="0 7.7964854">7q</tspan></text>
<text
           id="text110"
           style="font-variant:normal;font-size:9.35937977px;font-family:f-3;-inkscape-font-specification:f-3-0;writing-mode:lr-tb;fill:#000000;fill-opacity:1;fill-rule:nonzero;stroke:none"
           transform="matrix(1,0,0,-1,26.8957,244.668)"><tspan
             id="tspan112"
             y="0"
             x="0">+</tspan></text>
<text
           id="text114"
           style="font-variant:normal;font-size:9.35937977px;font-family:f-0;-inkscape-font-specification:f-0-0;writing-mode:lr-tb;fill:#000000;fill-opacity:1;fill-rule:nonzero;stroke:none"
           transform="matrix(1,0,0,-1,32.29609,244.668)"><tspan
             id="tspan116"
             y="0"
             x="0">n</tspan></text>
<text
           id="text118"
           style="font-variant:normal;font-size:9.35937977px;font-family:f-3;-inkscape-font-specification:f-3-0;writing-mode:lr-tb;fill:#000000;fill-opacity:1;fill-rule:nonzero;stroke:none"
           transform="matrix(1,0,0,-1,37.71523,244.668)"><tspan
             id="tspan120"
             y="0"
             x="0">+</tspan></text>
<text
           id="text122"
           style="font-variant:normal;font-size:9.35937977px;font-family:f-0;-inkscape-font-specification:f-0-0;writing-mode:lr-tb;fill:#000000;fill-opacity:1;fill-rule:nonzero;stroke:none"
           transform="matrix(1,0,0,-1,43.11562,244.668)"><tspan
             id="tspan124"
             y="0"
             x="0">5</tspan></text>
</g><path
         id="path126"
         style="fill:none;stroke:#ff8000;stroke-width:36;stroke-linecap:square;stroke-linejoin:miter;stroke-miterlimit:10;stroke-dasharray:none;stroke-opacity:1"
         d="m 176.02,2569.49 c -19.11,0 -37.43,-7.61 -50.942,-21.09 -13.476,-13.52 -21.098,-31.84 -21.098,-50.94 l 0,-41.56 c 0,-19.1 7.622,-37.42 21.098,-50.94 13.512,-13.48 31.832,-21.09 50.942,-21.09 l 271.601,0 c 19.059,0 37.379,7.61 50.899,21.09 13.511,13.52 21.089,31.84 21.089,50.94 l 0,41.56 c 0,19.1 -7.578,37.42 -21.089,50.94 -13.52,13.48 -31.84,21.09 -50.899,21.09 l -271.601,0 z" /><path
         id="path128"
         style="fill:none;stroke:#000000;stroke-width:7.19999981;stroke-linecap:square;stroke-linejoin:miter;stroke-miterlimit:10;stroke-dasharray:none;stroke-opacity:1"
         d="m 3.58984,2279.29 624.801,0 0,394.77 -624.801,0 0,-394.77 z" /><g
         transform="scale(10,10)"
         id="g130"><text
           id="text132"
           style="font-variant:normal;font-size:9.35937977px;font-family:f-0;-inkscape-font-specification:f-0-0;writing-mode:lr-tb;fill:#000000;fill-opacity:1;fill-rule:nonzero;stroke:none"
           transform="matrix(1,0,0,-1,10.0801,203.944)"><tspan
             id="tspan134"
             y="0"
             x="0 7.7964854">7q</tspan></text>
<text
           id="text136"
           style="font-variant:normal;font-size:9.35937977px;font-family:f-3;-inkscape-font-specification:f-3-0;writing-mode:lr-tb;fill:#000000;fill-opacity:1;fill-rule:nonzero;stroke:none"
           transform="matrix(1,0,0,-1,23.2957,203.944)"><tspan
             id="tspan138"
             y="0"
             x="0">+</tspan></text>
<text
           id="text140"
           style="font-variant:normal;font-size:9.35937977px;font-family:f-0;-inkscape-font-specification:f-0-0;writing-mode:lr-tb;fill:#000000;fill-opacity:1;fill-rule:nonzero;stroke:none"
           transform="matrix(1,0,0,-1,28.69609,203.944)"><tspan
             id="tspan142"
             y="0"
             x="0 7.7964854">6n</tspan></text>
<text
           id="text144"
           style="font-variant:normal;font-size:9.35937977px;font-family:f-3;-inkscape-font-specification:f-3-0;writing-mode:lr-tb;fill:#000000;fill-opacity:1;fill-rule:nonzero;stroke:none"
           transform="matrix(1,0,0,-1,41.91169,203.944)"><tspan
             id="tspan146"
             y="0"
             x="0">+</tspan></text>
<text
           id="text148"
           style="font-variant:normal;font-size:9.35937977px;font-family:f-0;-inkscape-font-specification:f-0-0;writing-mode:lr-tb;fill:#000000;fill-opacity:1;fill-rule:nonzero;stroke:none"
           transform="matrix(1,0,0,-1,47.31208,203.944)"><tspan
             id="tspan150"
             y="0"
             x="0">5</tspan></text>
</g><path
         id="path152"
         style="fill:none;stroke:#ff8000;stroke-width:36;stroke-linecap:square;stroke-linejoin:miter;stroke-miterlimit:10;stroke-dasharray:none;stroke-opacity:1"
         d="m 140,2162.23 c -19.102,0 -37.422,-7.58 -50.8984,-21.1 -13.5118,-13.47 -21.0899,-31.79 -21.0899,-50.9 l 0,-41.6 c 0,-19.1 7.5781,-37.38 21.0899,-50.9 13.4764,-13.51 31.7964,-21.09 50.8984,-21.09 l 351.602,0 c 19.097,0 37.418,7.58 50.898,21.09 13.52,13.52 21.09,31.8 21.09,50.9 l 0,41.6 c 0,19.11 -7.57,37.43 -21.09,50.9 -13.48,13.52 -31.801,21.1 -50.898,21.1 l -351.602,0 z" /><g
         transform="scale(10,10)"
         id="g154"><text
           id="text156"
           style="font-variant:normal;font-size:12.96000004px;font-family:f-4;-inkscape-font-specification:f-4-0;writing-mode:lr-tb;fill:#000000;fill-opacity:1;fill-rule:nonzero;stroke:none"
           transform="matrix(1,0,0,-1,0,176.28)"><tspan
             id="tspan158"
             y="0"
             x="0 7.8019199 15.655516 23.457436 31.311031 39.112949 46.953655 54.755577">Solution</tspan></text>
</g><path
         id="path160"
         style="fill:#ffe6e6;fill-opacity:1;fill-rule:nonzero;stroke:none"
         d="m 0,323.98 1286.02,0 0,1283.95 L 0,1607.93 0,323.98 Z" /><path
         id="path162"
         style="fill:none;stroke:#ff5454;stroke-width:10;stroke-linecap:square;stroke-linejoin:miter;stroke-miterlimit:10;stroke-dasharray:none;stroke-opacity:1"
         d="m 0,323.98 1286.02,0 0,1283.95 L 0,1607.93 0,323.98 Z" /><g
         transform="scale(10,10)"
         id="g164"><text
           id="text166"
           style="font-variant:normal;font-size:12.96000004px;font-family:f-0;-inkscape-font-specification:f-0-0;writing-mode:lr-tb;fill:#000000;fill-opacity:1;fill-rule:nonzero;stroke:none"
           transform="matrix(1,0,0,-1,0,18.048)"><tspan
             id="tspan168"
             y="0"
             x="0">q</tspan></text>
<text
           id="text170"
           style="font-variant:normal;font-size:12.96000004px;font-family:f-3;-inkscape-font-specification:f-3-0;writing-mode:lr-tb;fill:#000000;fill-opacity:1;fill-rule:nonzero;stroke:none"
           transform="matrix(1,0,0,-1,7.80195,18.048)"><tspan
             id="tspan172"
             y="0"
             x="0">+</tspan></text>
<text
           id="text174"
           style="font-variant:normal;font-size:12.96000004px;font-family:f-0;-inkscape-font-specification:f-0-0;writing-mode:lr-tb;fill:#000000;fill-opacity:1;fill-rule:nonzero;stroke:none"
           transform="matrix(1,0,0,-1,15.62968,18.048)"><tspan
             id="tspan176"
             y="0"
             x="0">2</tspan></text>
<text
           id="text178"
           style="font-variant:normal;font-size:12.96000004px;font-family:f-3;-inkscape-font-specification:f-3-0;writing-mode:lr-tb;fill:#000000;fill-opacity:1;fill-rule:nonzero;stroke:none"
           transform="matrix(1,0,0,-1,31.28518,18.048)"><tspan
             id="tspan180"
             y="0"
             x="0">+</tspan></text>
<text
           id="text182"
           style="font-variant:normal;font-size:12.96000004px;font-family:f-0;-inkscape-font-specification:f-0-0;writing-mode:lr-tb;fill:#000000;fill-opacity:1;fill-rule:nonzero;stroke:none"
           transform="matrix(1,0,0,-1,46.90198,18.048)"><tspan
             id="tspan184"
             y="0"
             x="0 11.275031">6q</tspan></text>
<text
           id="text186"
           style="font-variant:normal;font-size:12.96000004px;font-family:f-3;-inkscape-font-specification:f-3-0;writing-mode:lr-tb;fill:#000000;fill-opacity:1;fill-rule:nonzero;stroke:none"
           transform="matrix(1,0,0,-1,73.81958,18.048)"><tspan
             id="tspan188"
             y="0"
             x="0">+</tspan></text>
<text
           id="text190"
           style="font-variant:normal;font-size:12.96000004px;font-family:f-0;-inkscape-font-specification:f-0-0;writing-mode:lr-tb;fill:#000000;fill-opacity:1;fill-rule:nonzero;stroke:none"
           transform="matrix(1,0,0,-1,89.44928,18.048)"><tspan
             id="tspan192"
             y="0"
             x="0">n</tspan></text>
<text
           id="text194"
           style="font-variant:normal;font-size:12.96000004px;font-family:f-3;-inkscape-font-specification:f-3-0;writing-mode:lr-tb;fill:#000000;fill-opacity:1;fill-rule:nonzero;stroke:none"
           transform="matrix(1,0,0,-1,97.25123,18.048)"><tspan
             id="tspan196"
             y="0"
             x="0">+</tspan></text>
<text
           id="text198"
           style="font-variant:normal;font-size:12.96000004px;font-family:f-0;-inkscape-font-specification:f-0-0;writing-mode:lr-tb;fill:#000000;fill-opacity:1;fill-rule:nonzero;stroke:none"
           transform="matrix(1,0,0,-1,105.07896,18.048)"><tspan
             id="tspan200"
             y="0"
             x="0">3</tspan></text>
<text
           id="text202"
           style="font-variant:normal;font-size:12.96000004px;font-family:f-3;-inkscape-font-specification:f-3-0;writing-mode:lr-tb;fill:#000000;fill-opacity:1;fill-rule:nonzero;stroke:none"
           transform="matrix(1,0,0,-1,-4e-5,3.3039)"><tspan
             id="tspan204"
             y="0"
             x="0">=</tspan></text>
<text
           id="text206"
           style="font-variant:normal;font-size:12.96000004px;font-family:f-0;-inkscape-font-specification:f-0-0;writing-mode:lr-tb;fill:#000000;fill-opacity:1;fill-rule:nonzero;stroke:none"
           transform="matrix(1,0,0,-1,15.62966,3.3039)"><tspan
             id="tspan208"
             y="0"
             x="0 11.262149">7q</tspan></text>
<text
           id="text210"
           style="font-variant:normal;font-size:12.96000004px;font-family:f-3;-inkscape-font-specification:f-3-0;writing-mode:lr-tb;fill:#000000;fill-opacity:1;fill-rule:nonzero;stroke:none"
           transform="matrix(1,0,0,-1,34.69376,3.3039)"><tspan
             id="tspan212"
             y="0"
             x="0">+</tspan></text>
<text
           id="text214"
           style="font-variant:normal;font-size:12.96000004px;font-family:f-0;-inkscape-font-specification:f-0-0;writing-mode:lr-tb;fill:#000000;fill-opacity:1;fill-rule:nonzero;stroke:none"
           transform="matrix(1,0,0,-1,42.52149,3.3039)"><tspan
             id="tspan216"
             y="0"
             x="0">n</tspan></text>
<text
           id="text218"
           style="font-variant:normal;font-size:12.96000004px;font-family:f-3;-inkscape-font-specification:f-3-0;writing-mode:lr-tb;fill:#000000;fill-opacity:1;fill-rule:nonzero;stroke:none"
           transform="matrix(1,0,0,-1,50.32344,3.3039)"><tspan
             id="tspan220"
             y="0"
             x="0">+</tspan></text>
<text
           id="text222"
           style="font-variant:normal;font-size:12.96000004px;font-family:f-0;-inkscape-font-specification:f-0-0;writing-mode:lr-tb;fill:#000000;fill-opacity:1;fill-rule:nonzero;stroke:none"
           transform="matrix(1,0,0,-1,58.13828,3.3039)"><tspan
             id="tspan224"
             y="0"
             x="0">5</tspan></text>
</g></g></g></svg>