<?xml version="1.0" encoding="UTF-8" standalone="no"?>
<svg
   xmlns:dc="http://purl.org/dc/elements/1.1/"
   xmlns:cc="http://creativecommons.org/ns#"
   xmlns:rdf="http://www.w3.org/1999/02/22-rdf-syntax-ns#"
   xmlns:svg="http://www.w3.org/2000/svg"
   xmlns="http://www.w3.org/2000/svg"
   viewBox="0 0 161.25 246.25"
   height="246.25"
   width="161.25"
   xml:space="preserve"
   version="1.1"
   id="svg2"><metadata
     id="metadata8"><rdf:RDF><cc:Work
         rdf:about=""><dc:format>image/svg+xml</dc:format><dc:type
           rdf:resource="http://purl.org/dc/dcmitype/StillImage" /></cc:Work></rdf:RDF></metadata><defs
     id="defs6" /><g
     transform="matrix(1.25,0,0,-1.25,0,246.25)"
     id="g10"><g
       transform="scale(0.1,0.1)"
       id="g12"><g
         transform="scale(10,10)"
         id="g14"><text
           id="text16"
           style="font-variant:normal;font-size:9.35937977px;font-family:f-0;-inkscape-font-specification:f-0-0;writing-mode:lr-tb;fill:#000000;fill-opacity:1;fill-rule:nonzero;stroke:none"
           transform="matrix(1,0,0,-1,0,162.304)"><tspan
             id="tspan18"
             y="0"
             x="0 5.4191437">5.</tspan></text>
</g><path
         id="path20"
         style="fill:#ffe6e6;fill-opacity:1;fill-rule:nonzero;stroke:none"
         d="m 162.578,1323.05 638.012,0 0,636.949 -638.012,0 0,-636.949 z" /><path
         id="path22"
         style="fill:none;stroke:#ff5454;stroke-width:10;stroke-linecap:square;stroke-linejoin:miter;stroke-miterlimit:10;stroke-dasharray:none;stroke-opacity:1"
         d="m 162.578,1323.05 638.012,0 0,636.949 -638.012,0 0,-636.949 z" /><path
         id="path24"
         style="fill:#ff8080;fill-opacity:1;fill-rule:nonzero;stroke:none"
         d="m 25.0391,122.57 1125.94,0 0,1125.98 -1125.94,0 0,-1125.98 z" /><path
         id="path26"
         style="fill:none;stroke:#ff8080;stroke-width:0.30000001;stroke-linecap:square;stroke-linejoin:miter;stroke-miterlimit:3.23931003;stroke-dasharray:none;stroke-opacity:1"
         d="m 25.0391,122.57 1125.94,0 0,1125.98 -1125.94,0 0,-1125.98 z" /><path
         id="path28"
         style="fill:none;stroke:#000000;stroke-width:14.39999962;stroke-linecap:square;stroke-linejoin:miter;stroke-miterlimit:3.25;stroke-dasharray:none;stroke-opacity:1"
         d="m 25.0391,122.57 1125.94,0 0,1125.98 -1125.94,0 0,-1125.98 z" /><g
         transform="scale(10,10)"
         id="g30"><text
           id="text32"
           style="font-variant:normal;font-size:10.79979992px;font-family:f-1;-inkscape-font-specification:f-1-0;writing-mode:lr-tb;fill:#000000;fill-opacity:1;fill-rule:nonzero;stroke:none"
           transform="matrix(1,0,0,-1,47.5848,1.14336)"><tspan
             id="tspan34"
             y="0"
             x="0">h</tspan></text>
<text
           id="text36"
           style="font-variant:normal;font-size:10.79979992px;font-family:f-2;-inkscape-font-specification:f-2-0;writing-mode:lr-tb;fill:#000000;fill-opacity:1;fill-rule:nonzero;stroke:none"
           transform="matrix(1,0,0,-1,55.58753,1.14336)"><tspan
             id="tspan38"
             y="0"
             x="0">+</tspan></text>
<text
           id="text40"
           style="font-variant:normal;font-size:10.79979992px;font-family:f-1;-inkscape-font-specification:f-1-0;writing-mode:lr-tb;fill:#000000;fill-opacity:1;fill-rule:nonzero;stroke:none"
           transform="matrix(1,0,0,-1,64.00042,1.14336)"><tspan
             id="tspan42"
             y="0"
             x="0">5</tspan><tspan
             id="tspan44"
             y="-63.803902"
             x="51.6063 59.598099">6h</tspan></text>
</g></g></g></svg>