<?xml version="1.0" encoding="UTF-8" standalone="no"?>
<svg
   xmlns:dc="http://purl.org/dc/elements/1.1/"
   xmlns:cc="http://creativecommons.org/ns#"
   xmlns:rdf="http://www.w3.org/1999/02/22-rdf-syntax-ns#"
   xmlns:svg="http://www.w3.org/2000/svg"
   xmlns="http://www.w3.org/2000/svg"
   viewBox="0 0 162.5 685"
   height="685"
   width="162.5"
   xml:space="preserve"
   version="1.1"
   id="svg2"><metadata
     id="metadata8"><rdf:RDF><cc:Work
         rdf:about=""><dc:format>image/svg+xml</dc:format><dc:type
           rdf:resource="http://purl.org/dc/dcmitype/StillImage" /></cc:Work></rdf:RDF></metadata><defs
     id="defs6" /><g
     transform="matrix(1.25,0,0,-1.25,0,685)"
     id="g10"><g
       transform="scale(0.1,0.1)"
       id="g12"><g
         transform="scale(10,10)"
         id="g14"><text
           id="text16"
           style="font-variant:normal;font-size:9.35937977px;font-family:f-0;-inkscape-font-specification:f-0-0;writing-mode:lr-tb;fill:#000000;fill-opacity:1;fill-rule:nonzero;stroke:none"
           transform="matrix(1,0,0,-1,0,513.304)"><tspan
             id="tspan18"
             y="0"
             x="0 5.4191437">4.</tspan></text>
</g><path
         id="path20"
         style="fill:#ffe6e6;fill-opacity:1;fill-rule:nonzero;stroke:none"
         d="m 162.578,4833.05 638.012,0 0,636.949 -638.012,0 0,-636.949 z" /><path
         id="path22"
         style="fill:none;stroke:#ff5454;stroke-width:10;stroke-linecap:square;stroke-linejoin:miter;stroke-miterlimit:10;stroke-dasharray:none;stroke-opacity:1"
         d="m 162.578,4833.05 638.012,0 0,636.949 -638.012,0 0,-636.949 z" /><path
         id="path24"
         style="fill:#ff8080;fill-opacity:1;fill-rule:nonzero;stroke:none"
         d="m 25.0391,3632.57 1125.94,0 0,1125.98 -1125.94,0 0,-1125.98 z" /><path
         id="path26"
         style="fill:none;stroke:#ff8080;stroke-width:0.30000001;stroke-linecap:square;stroke-linejoin:miter;stroke-miterlimit:3.23931003;stroke-dasharray:none;stroke-opacity:1"
         d="m 25.0391,3632.57 1125.94,0 0,1125.98 -1125.94,0 0,-1125.98 z" /><path
         id="path28"
         style="fill:none;stroke:#000000;stroke-width:14.39999962;stroke-linecap:square;stroke-linejoin:miter;stroke-miterlimit:3.25;stroke-dasharray:none;stroke-opacity:1"
         d="m 25.0391,3632.57 1125.94,0 0,1125.98 -1125.94,0 0,-1125.98 z" /><g
         transform="scale(10,10)"
         id="g30"><text
           id="text32"
           style="font-variant:normal;font-size:10.79979992px;font-family:f-1;-inkscape-font-specification:f-1-0;writing-mode:lr-tb;fill:#000000;fill-opacity:1;fill-rule:nonzero;stroke:none"
           transform="matrix(1,0,0,-1,47.5848,352.143)"><tspan
             id="tspan34"
             y="0"
             x="0">g</tspan></text>
<text
           id="text36"
           style="font-variant:normal;font-size:10.79979992px;font-family:f-2;-inkscape-font-specification:f-2-0;writing-mode:lr-tb;fill:#000000;fill-opacity:1;fill-rule:nonzero;stroke:none"
           transform="matrix(1,0,0,-1,55.58753,352.143)"><tspan
             id="tspan38"
             y="0"
             x="0">+</tspan></text>
<text
           id="text40"
           style="font-variant:normal;font-size:10.79979992px;font-family:f-1;-inkscape-font-specification:f-1-0;writing-mode:lr-tb;fill:#000000;fill-opacity:1;fill-rule:nonzero;stroke:none"
           transform="matrix(1,0,0,-1,64.00042,352.143)"><tspan
             id="tspan42"
             y="0"
             x="0">6</tspan><tspan
             id="tspan44"
             y="-63.803902"
             x="51.6063 59.598099">3g</tspan></text>
<text
           id="text46"
           style="font-variant:normal;font-size:9.35937977px;font-family:f-0;-inkscape-font-specification:f-0-0;writing-mode:lr-tb;fill:#000000;fill-opacity:1;fill-rule:nonzero;stroke:none"
           transform="matrix(1,0,0,-1,10.07972,325.1758)"><tspan
             id="tspan48"
             y="0"
             x="0 5.4191427 13.215628">21g</tspan></text>
</g><path
         id="path50"
         style="fill:none;stroke:#ff8000;stroke-width:36;stroke-linecap:square;stroke-linejoin:miter;stroke-miterlimit:10;stroke-dasharray:none;stroke-opacity:1"
         d="m 140,3374.57 c -19.102,0 -37.422,-7.58 -50.8984,-21.09 -13.5118,-13.52 -21.0899,-31.84 -21.0899,-50.9 l 0,-41.6 c 0,-19.1 7.5781,-37.43 21.0899,-50.94 13.4764,-13.48 31.7964,-21.09 50.8984,-21.09 l 111.602,0 c 19.097,0 37.418,7.61 50.898,21.09 13.52,13.51 21.09,31.84 21.09,50.94 l 0,41.6 c 0,19.06 -7.57,37.38 -21.09,50.9 -13.48,13.51 -31.801,21.09 -50.898,21.09 l -111.602,0 z" /><g
         transform="scale(10,10)"
         id="g52"><text
           id="text54"
           style="font-variant:normal;font-size:9.35937977px;font-family:f-0;-inkscape-font-specification:f-0-0;writing-mode:lr-tb;fill:#000000;fill-opacity:1;fill-rule:nonzero;stroke:none"
           transform="matrix(1,0,0,-1,10.0801,288.432)"><tspan
             id="tspan56"
             y="0"
             x="0 7.7964854">6g</tspan></text>
<text
           id="text58"
           style="font-variant:normal;font-size:6.6455102px;font-family:f-3;-inkscape-font-specification:f-3-0;writing-mode:lr-tb;fill:#000000;fill-opacity:1;fill-rule:nonzero;stroke:none"
           transform="matrix(1,0,0,-1,23.2969,291.632)"><tspan
             id="tspan60"
             y="0"
             x="0">2</tspan></text>
<text
           id="text62"
           style="font-variant:normal;font-size:9.35937977px;font-family:f-4;-inkscape-font-specification:f-4-0;writing-mode:lr-tb;fill:#000000;fill-opacity:1;fill-rule:nonzero;stroke:none"
           transform="matrix(1,0,0,-1,33.29065,288.432)"><tspan
             id="tspan64"
             y="0"
             x="0">+</tspan></text>
<text
           id="text66"
           style="font-variant:normal;font-size:9.35937977px;font-family:f-0;-inkscape-font-specification:f-0-0;writing-mode:lr-tb;fill:#000000;fill-opacity:1;fill-rule:nonzero;stroke:none"
           transform="matrix(1,0,0,-1,44.11015,288.432)"><tspan
             id="tspan68"
             y="0"
             x="0 5.4191427 13.215628">18g</tspan></text>
</g><path
         id="path70"
         style="fill:none;stroke:#ff8000;stroke-width:36;stroke-linecap:square;stroke-linejoin:miter;stroke-miterlimit:10;stroke-dasharray:none;stroke-opacity:1"
         d="m 140,3007.11 c -19.102,0 -37.422,-7.58 -50.8984,-21.09 -13.5118,-13.48 -21.0899,-31.8 -21.0899,-50.9 l 0,-41.6 c 0,-19.11 7.5781,-37.43 21.0899,-50.9 13.4764,-13.52 31.7964,-21.1 50.8984,-21.1 l 451.602,0 c 19.097,0 37.418,7.58 50.898,21.1 13.52,13.47 21.09,31.79 21.09,50.9 l 0,41.6 c 0,19.1 -7.57,37.42 -21.09,50.9 -13.48,13.51 -31.801,21.09 -50.898,21.09 l -451.602,0 z" /><path
         id="path72"
         style="fill:#e1ffe1;fill-opacity:1;fill-rule:nonzero;stroke:none"
         d="m 0,2305.67 811.988,0 0,402.027 -811.988,0 0,-402.027 z" /><path
         id="path74"
         style="fill:none;stroke:#e1ffe1;stroke-width:0.30000001;stroke-linecap:square;stroke-linejoin:miter;stroke-miterlimit:10;stroke-dasharray:none;stroke-opacity:1"
         d="m 0,2305.67 811.988,0 0,402.027 -811.988,0 0,-402.027 z" /><g
         transform="scale(10,10)"
         id="g76"><text
           id="text78"
           style="font-variant:normal;font-size:9.35937977px;font-family:f-0;-inkscape-font-specification:f-0-0;writing-mode:lr-tb;fill:#000000;fill-opacity:1;fill-rule:nonzero;stroke:none"
           transform="matrix(1,0,0,-1,13.6801,247.668)"><tspan
             id="tspan80"
             y="0"
             x="0 7.7964854">3g</tspan></text>
<text
           id="text82"
           style="font-variant:normal;font-size:6.6455102px;font-family:f-3;-inkscape-font-specification:f-3-0;writing-mode:lr-tb;fill:#000000;fill-opacity:1;fill-rule:nonzero;stroke:none"
           transform="matrix(1,0,0,-1,26.8969,250.868)"><tspan
             id="tspan84"
             y="0"
             x="0">2</tspan></text>
<text
           id="text86"
           style="font-variant:normal;font-size:9.35937977px;font-family:f-4;-inkscape-font-specification:f-4-0;writing-mode:lr-tb;fill:#000000;fill-opacity:1;fill-rule:nonzero;stroke:none"
           transform="matrix(1,0,0,-1,36.89065,247.668)"><tspan
             id="tspan88"
             y="0"
             x="0">+</tspan></text>
<text
           id="text90"
           style="font-variant:normal;font-size:9.35937977px;font-family:f-0;-inkscape-font-specification:f-0-0;writing-mode:lr-tb;fill:#000000;fill-opacity:1;fill-rule:nonzero;stroke:none"
           transform="matrix(1,0,0,-1,47.71015,247.668)"><tspan
             id="tspan92"
             y="0"
             x="0 5.4191427 13.215628">18g</tspan></text>
</g><path
         id="path94"
         style="fill:none;stroke:#ff8000;stroke-width:36;stroke-linecap:square;stroke-linejoin:miter;stroke-miterlimit:10;stroke-dasharray:none;stroke-opacity:1"
         d="m 176.02,2599.49 c -19.11,0 -37.43,-7.61 -50.942,-21.09 -13.476,-13.52 -21.098,-31.84 -21.098,-50.94 l 0,-41.56 c 0,-19.1 7.622,-37.42 21.098,-50.94 13.512,-13.48 31.832,-21.09 50.942,-21.09 l 451.601,0 c 19.059,0 37.379,7.61 50.899,21.09 13.511,13.52 21.089,31.84 21.089,50.94 l 0,41.56 c 0,19.1 -7.578,37.42 -21.089,50.94 -13.52,13.48 -31.84,21.09 -50.899,21.09 l -451.601,0 z" /><path
         id="path96"
         style="fill:none;stroke:#000000;stroke-width:7.19999981;stroke-linecap:square;stroke-linejoin:miter;stroke-miterlimit:10;stroke-dasharray:none;stroke-opacity:1"
         d="m 3.58984,2309.29 804.801,0 0,394.77 -804.801,0 0,-394.77 z" /><g
         transform="scale(10,10)"
         id="g98"><text
           id="text100"
           style="font-variant:normal;font-size:9.35937977px;font-family:f-0;-inkscape-font-specification:f-0-0;writing-mode:lr-tb;fill:#000000;fill-opacity:1;fill-rule:nonzero;stroke:none"
           transform="matrix(1,0,0,-1,10.0801,206.944)"><tspan
             id="tspan102"
             y="0"
             x="0 7.7964854">3g</tspan></text>
<text
           id="text104"
           style="font-variant:normal;font-size:9.35937977px;font-family:f-4;-inkscape-font-specification:f-4-0;writing-mode:lr-tb;fill:#000000;fill-opacity:1;fill-rule:nonzero;stroke:none"
           transform="matrix(1,0,0,-1,28.7149,206.944)"><tspan
             id="tspan106"
             y="0"
             x="0">+</tspan></text>
<text
           id="text108"
           style="font-variant:normal;font-size:9.35937977px;font-family:f-0;-inkscape-font-specification:f-0-0;writing-mode:lr-tb;fill:#000000;fill-opacity:1;fill-rule:nonzero;stroke:none"
           transform="matrix(1,0,0,-1,39.5344,206.944)"><tspan
             id="tspan110"
             y="0"
             x="0 7.7964854">6g</tspan></text>
<text
           id="text112"
           style="font-variant:normal;font-size:6.6455102px;font-family:f-3;-inkscape-font-specification:f-3-0;writing-mode:lr-tb;fill:#000000;fill-opacity:1;fill-rule:nonzero;stroke:none"
           transform="matrix(1,0,0,-1,52.7528,210.144)"><tspan
             id="tspan114"
             y="0"
             x="0">2</tspan></text>
</g><path
         id="path116"
         style="fill:none;stroke:#ff8000;stroke-width:36;stroke-linecap:square;stroke-linejoin:miter;stroke-miterlimit:10;stroke-dasharray:none;stroke-opacity:1"
         d="m 140,2192.23 c -19.102,0 -37.422,-7.58 -50.8984,-21.1 -13.5118,-13.47 -21.0899,-31.79 -21.0899,-50.9 l 0,-41.6 c 0,-19.1 7.5781,-37.38 21.0899,-50.9 13.4764,-13.51 31.7964,-21.09 50.8984,-21.09 l 401.602,0 c 19.097,0 37.418,7.58 50.898,21.09 13.52,13.52 21.09,31.8 21.09,50.9 l 0,41.6 c 0,19.11 -7.57,37.43 -21.09,50.9 -13.48,13.52 -31.801,21.1 -50.898,21.1 l -401.602,0 z" /><g
         transform="scale(10,10)"
         id="g118"><text
           id="text120"
           style="font-variant:normal;font-size:12.96000004px;font-family:f-5;-inkscape-font-specification:f-5-0;writing-mode:lr-tb;fill:#000000;fill-opacity:1;fill-rule:nonzero;stroke:none"
           transform="matrix(1,0,0,-1,0,179.28)"><tspan
             id="tspan122"
             y="0"
             x="0 7.8019199 15.655516 23.457436 31.311031 39.112949 46.953655 54.755577">Solution</tspan></text>
</g><path
         id="path124"
         style="fill:#ffe6e6;fill-opacity:1;fill-rule:nonzero;stroke:none"
         d="m 0,353.98 1286.02,0 0,1283.95 L 0,1637.93 0,353.98 Z" /><path
         id="path126"
         style="fill:none;stroke:#ff5454;stroke-width:10;stroke-linecap:square;stroke-linejoin:miter;stroke-miterlimit:10;stroke-dasharray:none;stroke-opacity:1"
         d="m 0,353.98 1286.02,0 0,1283.95 L 0,1637.93 0,353.98 Z" /><g
         transform="scale(10,10)"
         id="g128"><text
           id="text130"
           style="font-variant:normal;font-size:12.96000004px;font-family:f-4;-inkscape-font-specification:f-4-0;writing-mode:lr-tb;fill:#000000;fill-opacity:1;fill-rule:nonzero;stroke:none"
           transform="matrix(1,0,0,-1,7.82695,21.048)"><tspan
             id="tspan132"
             y="0"
             x="0 15.629734">=(</tspan></text>
<text
           id="text134"
           style="font-variant:normal;font-size:12.96000004px;font-family:f-0;-inkscape-font-specification:f-0-0;writing-mode:lr-tb;fill:#000000;fill-opacity:1;fill-rule:nonzero;stroke:none"
           transform="matrix(1,0,0,-1,31.23285,21.048)"><tspan
             id="tspan136"
             y="0"
             x="0">g</tspan></text>
<text
           id="text138"
           style="font-variant:normal;font-size:12.96000004px;font-family:f-4;-inkscape-font-specification:f-4-0;writing-mode:lr-tb;fill:#000000;fill-opacity:1;fill-rule:nonzero;stroke:none"
           transform="matrix(1,0,0,-1,39.08676,21.048)"><tspan
             id="tspan140"
             y="0"
             x="0">+</tspan></text>
<text
           id="text142"
           style="font-variant:normal;font-size:12.96000004px;font-family:f-0;-inkscape-font-specification:f-0-0;writing-mode:lr-tb;fill:#000000;fill-opacity:1;fill-rule:nonzero;stroke:none"
           transform="matrix(1,0,0,-1,46.86293,21.048)"><tspan
             id="tspan144"
             y="0"
             x="0">6</tspan></text>
<text
           id="text146"
           style="font-variant:normal;font-size:12.96000004px;font-family:f-4;-inkscape-font-specification:f-4-0;writing-mode:lr-tb;fill:#000000;fill-opacity:1;fill-rule:nonzero;stroke:none"
           transform="matrix(1,0,0,-1,54.70356,21.048)"><tspan
             id="tspan148"
             y="0"
             x="0 15.629734 31.259468">)×(</tspan></text>
<text
           id="text150"
           style="font-variant:normal;font-size:12.96000004px;font-family:f-0;-inkscape-font-specification:f-0-0;writing-mode:lr-tb;fill:#000000;fill-opacity:1;fill-rule:nonzero;stroke:none"
           transform="matrix(1,0,0,-1,93.73906,21.048)"><tspan
             id="tspan152"
             y="0"
             x="0 11.288316">3g</tspan></text>
<text
           id="text154"
           style="font-variant:normal;font-size:12.96000004px;font-family:f-4;-inkscape-font-specification:f-4-0;writing-mode:lr-tb;fill:#000000;fill-opacity:1;fill-rule:nonzero;stroke:none"
           transform="matrix(1,0,0,-1,112.82926,21.048)"><tspan
             id="tspan156"
             y="0"
             x="0">)</tspan><tspan
             id="tspan158"
             y="17.344101"
             x="-105.002">=</tspan></text>
<text
           id="text160"
           style="font-variant:normal;font-size:12.96000004px;font-family:f-0;-inkscape-font-specification:f-0-0;writing-mode:lr-tb;fill:#000000;fill-opacity:1;fill-rule:nonzero;stroke:none"
           transform="matrix(1,0,0,-1,23.45696,3.7039)"><tspan
             id="tspan162"
             y="0"
             x="0 11.262149">3g</tspan></text>
<text
           id="text164"
           style="font-variant:normal;font-size:9.20116997px;font-family:f-0;-inkscape-font-specification:f-0-0;writing-mode:lr-tb;fill:#000000;fill-opacity:1;fill-rule:nonzero;stroke:none"
           transform="matrix(1,0,0,-1,42.54676,9.3039)"><tspan
             id="tspan166"
             y="0"
             x="0">2</tspan></text>
<text
           id="text168"
           style="font-variant:normal;font-size:12.96000004px;font-family:f-4;-inkscape-font-specification:f-4-0;writing-mode:lr-tb;fill:#000000;fill-opacity:1;fill-rule:nonzero;stroke:none"
           transform="matrix(1,0,0,-1,56.15296,3.7039)"><tspan
             id="tspan170"
             y="0"
             x="0">+</tspan></text>
<text
           id="text172"
           style="font-variant:normal;font-size:12.96000004px;font-family:f-0;-inkscape-font-specification:f-0-0;writing-mode:lr-tb;fill:#000000;fill-opacity:1;fill-rule:nonzero;stroke:none"
           transform="matrix(1,0,0,-1,71.78266,3.7039)"><tspan
             id="tspan174"
             y="0"
             x="0 7.8019199 19.089899">18g</tspan></text>
</g></g></g></svg>