<?xml version="1.0" encoding="UTF-8" standalone="no"?>
<svg
   xmlns:dc="http://purl.org/dc/elements/1.1/"
   xmlns:cc="http://creativecommons.org/ns#"
   xmlns:rdf="http://www.w3.org/1999/02/22-rdf-syntax-ns#"
   xmlns:svg="http://www.w3.org/2000/svg"
   xmlns="http://www.w3.org/2000/svg"
   viewBox="0 0 66.25 28.75"
   height="28.75"
   width="66.25"
   xml:space="preserve"
   version="1.1"
   id="svg2"><metadata
     id="metadata8"><rdf:RDF><cc:Work
         rdf:about=""><dc:format>image/svg+xml</dc:format><dc:type
           rdf:resource="http://purl.org/dc/dcmitype/StillImage" /></cc:Work></rdf:RDF></metadata><defs
     id="defs6" /><g
     transform="matrix(1.25,0,0,-1.25,0,28.75)"
     id="g10"><g
       transform="scale(0.1,0.1)"
       id="g12"><g
         transform="scale(10,10)"
         id="g14"><text
           id="text16"
           style="font-variant:normal;font-size:9.35937977px;font-family:f-0;-inkscape-font-specification:f-0-0;writing-mode:lr-tb;fill:#000000;fill-opacity:1;fill-rule:nonzero;stroke:none"
           transform="matrix(1,0,0,-1,5.08008,8.91992)"><tspan
             id="tspan18"
             y="0"
             x="0 5.4191437 13.215629">13m</tspan></text>
<text
           id="text20"
           style="font-variant:normal;font-size:9.35937977px;font-family:f-1;-inkscape-font-specification:f-1-0;writing-mode:lr-tb;fill:#000000;fill-opacity:1;fill-rule:nonzero;stroke:none"
           transform="matrix(1,0,0,-1,25.71758,8.91992)"><tspan
             id="tspan22"
             y="0"
             x="0">+</tspan></text>
<text
           id="text24"
           style="font-variant:normal;font-size:9.35937977px;font-family:f-0;-inkscape-font-specification:f-0-0;writing-mode:lr-tb;fill:#000000;fill-opacity:1;fill-rule:nonzero;stroke:none"
           transform="matrix(1,0,0,-1,33.11133,8.91992)"><tspan
             id="tspan26"
             y="0"
             x="0 7.7964854">4t</tspan></text>
</g><path
         id="path28"
         style="fill:none;stroke:#ff8000;stroke-width:36;stroke-linecap:square;stroke-linejoin:miter;stroke-miterlimit:10;stroke-dasharray:none;stroke-opacity:1"
         d="m 90,211.988 c -19.1016,0 -37.4219,-7.578 -50.8984,-21.09 C 25.5898,177.422 18.0117,159.102 18.0117,140 l 0,-41.6016 C 18.0117,79.3008 25.5898,60.9805 39.1016,47.5 52.5781,33.9805 70.8984,26.4102 90,26.4102 l 341.602,0 c 19.097,0 37.418,7.5703 50.898,21.0898 13.52,13.4805 21.09,31.8008 21.09,50.8984 l 0,41.6016 c 0,19.102 -7.57,37.422 -21.09,50.898 -13.48,13.512 -31.801,21.09 -50.898,21.09 l -341.602,0 z" /></g></g></svg>