<?xml version="1.0" encoding="UTF-8" standalone="no"?>
<svg
   xmlns:dc="http://purl.org/dc/elements/1.1/"
   xmlns:cc="http://creativecommons.org/ns#"
   xmlns:rdf="http://www.w3.org/1999/02/22-rdf-syntax-ns#"
   xmlns:svg="http://www.w3.org/2000/svg"
   xmlns="http://www.w3.org/2000/svg"
   viewBox="0 0 21.25 28.75"
   height="28.75"
   width="21.25"
   xml:space="preserve"
   version="1.1"
   id="svg2"><metadata
     id="metadata8"><rdf:RDF><cc:Work
         rdf:about=""><dc:format>image/svg+xml</dc:format><dc:type
           rdf:resource="http://purl.org/dc/dcmitype/StillImage" /></cc:Work></rdf:RDF></metadata><defs
     id="defs6" /><g
     transform="matrix(1.25,0,0,-1.25,0,28.75)"
     id="g10"><g
       transform="scale(0.1,0.1)"
       id="g12"><g
         transform="scale(10,10)"
         id="g14"><text
           id="text16"
           style="font-variant:normal;font-size:9.35937977px;font-family:f-0;-inkscape-font-specification:f-0-0;writing-mode:lr-tb;fill:#000000;fill-opacity:1;fill-rule:nonzero;stroke:none"
           transform="matrix(1,0,0,-1,5.08008,8.91992)"><tspan
             id="tspan18"
             y="0"
             x="0">a</tspan></text>
</g><path
         id="path20"
         style="fill:none;stroke:#ff8000;stroke-width:36;stroke-linecap:square;stroke-linejoin:miter;stroke-miterlimit:10;stroke-dasharray:none;stroke-opacity:1"
         d="m 80.7813,211.988 c -16.6407,0 -32.6211,-7.578 -44.3711,-21.09 C 24.6094,177.422 18.0117,159.102 18.0117,140 l 0,-41.6016 c 0,-19.0976 6.5977,-37.4179 18.3985,-50.8984 11.75,-13.5195 27.7304,-21.0898 44.3711,-21.0898 16.6796,0 32.6597,7.5703 44.4177,21.0898 11.789,13.4805 18.391,31.8008 18.391,50.8984 l 0,41.6016 c 0,19.102 -6.602,37.422 -18.391,50.898 -11.758,13.512 -27.7381,21.09 -44.4177,21.09 z" /></g></g></svg>